<svg width="229" height="88" viewBox="0 0 229 88" fill="none" xmlns="http://www.w3.org/2000/svg">
<rect x="111" y="21" width="95" height="6" rx="3" fill="#D9D9D9"/>
<rect x="24" y="61" width="74" height="6" rx="3" fill="#D9D9D9"/>
<path d="M31.2842 51.24L30.9602 44.508L43.0202 31.8H49.5002L38.6282 43.5L35.3882 46.956L31.2842 51.24ZM26.0642 57V31.8H31.8602V57H26.0642ZM43.3082 57L34.3442 46.02L38.1602 41.88L50.1122 57H43.3082ZM52.3166 57V37.632H57.9326V57H52.3166ZM55.1246 34.932C54.0926 34.932 53.2526 34.632 52.6046 34.032C51.9566 33.432 51.6326 32.688 51.6326 31.8C51.6326 30.912 51.9566 30.168 52.6046 29.568C53.2526 28.968 54.0926 28.668 55.1246 28.668C56.1566 28.668 56.9966 28.956 57.6446 29.532C58.2926 30.084 58.6166 30.804 58.6166 31.692C58.6166 32.628 58.2926 33.408 57.6446 34.032C57.0206 34.632 56.1806 34.932 55.1246 34.932ZM71.0647 57.288C68.7847 57.288 67.0087 56.712 65.7367 55.56C64.4647 54.384 63.8287 52.644 63.8287 50.34V33.348H69.4447V50.268C69.4447 51.084 69.6607 51.72 70.0927 52.176C70.5247 52.608 71.1127 52.824 71.8567 52.824C72.7447 52.824 73.5007 52.584 74.1247 52.104L75.6367 56.064C75.0607 56.472 74.3647 56.784 73.5487 57C72.7567 57.192 71.9287 57.288 71.0647 57.288ZM60.8407 42.384V38.064H74.2687V42.384H60.8407ZM90.6693 57V53.22L90.3093 52.392V45.624C90.3093 44.424 89.9373 43.488 89.1933 42.816C88.4733 42.144 87.3573 41.808 85.8453 41.808C84.8133 41.808 83.7933 41.976 82.7853 42.312C81.8013 42.624 80.9613 43.056 80.2653 43.608L78.2493 39.684C79.3053 38.94 80.5773 38.364 82.0653 37.956C83.5533 37.548 85.0653 37.344 86.6013 37.344C89.5533 37.344 91.8453 38.04 93.4773 39.432C95.1093 40.824 95.9253 42.996 95.9253 45.948V57H90.6693ZM84.7653 57.288C83.2533 57.288 81.9573 57.036 80.8773 56.532C79.7973 56.004 78.9693 55.296 78.3933 54.408C77.8173 53.52 77.5293 52.524 77.5293 51.42C77.5293 50.268 77.8053 49.26 78.3573 48.396C78.9333 47.532 79.8333 46.86 81.0573 46.38C82.2813 45.876 83.8773 45.624 85.8453 45.624H90.9933V48.9H86.4573C85.1373 48.9 84.2253 49.116 83.7213 49.548C83.2413 49.98 83.0013 50.52 83.0013 51.168C83.0013 51.888 83.2773 52.464 83.8293 52.896C84.4053 53.304 85.1853 53.508 86.1693 53.508C87.1053 53.508 87.9453 53.292 88.6893 52.86C89.4333 52.404 89.9733 51.744 90.3093 50.88L91.1733 53.472C90.7653 54.72 90.0213 55.668 88.9413 56.316C87.8613 56.964 86.4693 57.288 84.7653 57.288ZM116.819 51.24L116.495 44.508L128.555 31.8H135.035L124.163 43.5L120.923 46.956L116.819 51.24ZM111.599 57V31.8H117.395V57H111.599ZM128.843 57L119.879 46.02L123.695 41.88L135.647 57H128.843ZM146.655 57.288C144.447 57.288 142.503 56.856 140.823 55.992C139.167 55.128 137.883 53.952 136.971 52.464C136.059 50.952 135.603 49.236 135.603 47.316C135.603 45.372 136.047 43.656 136.935 42.168C137.847 40.656 139.083 39.48 140.643 38.64C142.203 37.776 143.967 37.344 145.935 37.344C147.831 37.344 149.535 37.752 151.047 38.568C152.583 39.36 153.795 40.512 154.683 42.024C155.571 43.512 156.015 45.3 156.015 47.388C156.015 47.604 156.003 47.856 155.979 48.144C155.955 48.408 155.931 48.66 155.907 48.9H140.175V45.624H152.955L150.795 46.596C150.795 45.588 150.591 44.712 150.183 43.968C149.775 43.224 149.211 42.648 148.491 42.24C147.771 41.808 146.931 41.592 145.971 41.592C145.011 41.592 144.159 41.808 143.415 42.24C142.695 42.648 142.131 43.236 141.723 44.004C141.315 44.748 141.111 45.636 141.111 46.668V47.532C141.111 48.588 141.339 49.524 141.795 50.34C142.275 51.132 142.935 51.744 143.775 52.176C144.639 52.584 145.647 52.788 146.799 52.788C147.831 52.788 148.731 52.632 149.499 52.32C150.291 52.008 151.011 51.54 151.659 50.916L154.647 54.156C153.759 55.164 152.643 55.944 151.299 56.496C149.955 57.024 148.407 57.288 146.655 57.288ZM159.754 57V37.632H165.118V43.104L164.362 41.52C164.938 40.152 165.862 39.12 167.134 38.424C168.406 37.704 169.954 37.344 171.778 37.344V42.528C171.538 42.504 171.322 42.492 171.13 42.492C170.938 42.468 170.734 42.456 170.518 42.456C168.982 42.456 167.734 42.9 166.774 43.788C165.838 44.652 165.37 46.008 165.37 47.856V57H159.754ZM173.818 64.272C172.954 64.272 172.126 64.176 171.334 63.984C170.542 63.816 169.87 63.552 169.318 63.192L170.83 59.124C171.478 59.58 172.27 59.808 173.206 59.808C173.902 59.808 174.454 59.568 174.862 59.088C175.294 58.632 175.51 57.936 175.51 57V37.632H181.126V56.964C181.126 59.196 180.49 60.972 179.218 62.292C177.946 63.612 176.146 64.272 173.818 64.272ZM178.318 34.932C177.286 34.932 176.446 34.632 175.798 34.032C175.15 33.432 174.826 32.688 174.826 31.8C174.826 30.912 175.15 30.168 175.798 29.568C176.446 28.968 177.286 28.668 178.318 28.668C179.35 28.668 180.19 28.956 180.838 29.532C181.486 30.084 181.81 30.804 181.81 31.692C181.81 32.628 181.486 33.408 180.838 34.032C180.214 34.632 179.374 34.932 178.318 34.932ZM198.177 57V53.22L197.817 52.392V45.624C197.817 44.424 197.445 43.488 196.701 42.816C195.981 42.144 194.865 41.808 193.353 41.808C192.321 41.808 191.301 41.976 190.293 42.312C189.309 42.624 188.469 43.056 187.773 43.608L185.757 39.684C186.813 38.94 188.085 38.364 189.573 37.956C191.061 37.548 192.573 37.344 194.109 37.344C197.061 37.344 199.353 38.04 200.985 39.432C202.617 40.824 203.433 42.996 203.433 45.948V57H198.177ZM192.273 57.288C190.761 57.288 189.465 57.036 188.385 56.532C187.305 56.004 186.477 55.296 185.901 54.408C185.325 53.52 185.037 52.524 185.037 51.42C185.037 50.268 185.313 49.26 185.865 48.396C186.441 47.532 187.341 46.86 188.565 46.38C189.789 45.876 191.385 45.624 193.353 45.624H198.501V48.9H193.965C192.645 48.9 191.733 49.116 191.229 49.548C190.749 49.98 190.509 50.52 190.509 51.168C190.509 51.888 190.785 52.464 191.337 52.896C191.913 53.304 192.693 53.508 193.677 53.508C194.613 53.508 195.453 53.292 196.197 52.86C196.941 52.404 197.481 51.744 197.817 50.88L198.681 53.472C198.273 54.72 197.529 55.668 196.449 56.316C195.369 56.964 193.977 57.288 192.273 57.288Z" fill="white"/>
</svg>
