<svg width="30" height="30" viewBox="0 0 30 30" fill="none" xmlns="http://www.w3.org/2000/svg">
<path d="M16.25 3.75C21.1 3.75 25 7.675 25 12.5C25 16 22.9625 18.9875 20 20.3875V26.25H11.25V22.5H10C8.6125 22.5 7.5 21.3875 7.5 20V16.25H5.625C5.1 16.25 4.8 15.625 5.1 15.2375L7.5 12.075C7.61014 9.82912 8.58029 7.71174 10.2093 6.16181C11.8384 4.61188 14.0014 3.74826 16.25 3.75ZM16.25 1.25C10.5125 1.25 5.7625 5.525 5.075 11.125L3.125 13.75H3.0875L3.0625 13.7875C2.375 14.7375 2.2875 15.9875 2.825 17.025C3.275 17.8875 4.075 18.4875 5 18.675V20C5 22.3125 6.6 24.275 8.75 24.8375V28.75H22.5V21.875C25.625 19.7875 27.5 16.325 27.5 12.5C27.5 6.2875 22.45 1.25 16.25 1.25ZM21.6625 11.625L19.2125 12.2625L21.0125 14.0875C21.45 14.5125 21.45 15.2375 21.0125 15.675C20.575 16.1125 19.85 16.1125 19.425 15.675L17.6125 13.875L16.9625 16.325C16.8125 16.9375 16.2 17.275 15.625 17.125C15.4795 17.0885 15.3426 17.0236 15.2222 16.934C15.1019 16.8444 15.0004 16.7319 14.9237 16.603C14.847 16.474 14.7966 16.3311 14.7754 16.1826C14.7542 16.0341 14.7625 15.8828 14.8 15.7375L15.4625 13.2875L13.0125 13.95C12.8672 13.9875 12.716 13.9958 12.5674 13.9746C12.4189 13.9534 12.276 13.903 12.1471 13.8263C12.0181 13.7496 11.9056 13.6481 11.816 13.5278C11.7264 13.4074 11.6615 13.2705 11.625 13.125C11.475 12.5625 11.825 11.9375 12.425 11.7875L14.875 11.1375L13.075 9.325C12.8869 9.11022 12.7876 8.83197 12.797 8.54665C12.8065 8.26134 12.9241 7.99028 13.1259 7.78842C13.3278 7.58656 13.5988 7.46899 13.8842 7.45953C14.1695 7.45008 14.4477 7.54944 14.6625 7.7375L16.4875 9.5375L17.125 7.0875C17.275 6.475 17.9 6.125 18.4875 6.2875C19.1 6.45 19.45 7.0625 19.2875 7.6625L18.625 10.125L21.0875 9.4625C21.6875 9.3 22.3 9.65 22.4625 10.2625C22.625 10.85 22.275 11.475 21.6625 11.625Z" fill="#638EFB"/>
</svg>
