<svg width="30" height="30" viewBox="0 0 30 30" fill="none" xmlns="http://www.w3.org/2000/svg">
<path d="M5 26.25C4.3125 26.25 3.72375 26.005 3.23375 25.515C2.74375 25.025 2.49917 24.4367 2.5 23.75V10C2.5 9.3125 2.745 8.72375 3.235 8.23375C3.725 7.74375 4.31334 7.49917 5 7.5H10V5C10 4.3125 10.245 3.72375 10.735 3.23375C11.225 2.74375 11.8133 2.49917 12.5 2.5H17.5C18.1875 2.5 18.7763 2.745 19.2663 3.235C19.7563 3.725 20.0008 4.31334 20 5V7.5H25C25.6875 7.5 26.2763 7.745 26.7663 8.235C27.2563 8.725 27.5008 9.31334 27.5 10V23.75C27.5 24.4375 27.255 25.0263 26.765 25.5163C26.275 26.0063 25.6867 26.2508 25 26.25H5ZM12.5 7.5H17.5V5H12.5V7.5Z" fill="#4D7EFA"/>
</svg>
