<svg width="38" height="38" viewBox="0 0 38 38" fill="none" xmlns="http://www.w3.org/2000/svg">
<path fill-rule="evenodd" clip-rule="evenodd" d="M25.6667 14C25.6667 15.7681 24.9643 17.4638 23.714 18.714C22.4638 19.9643 20.7681 20.6666 19 20.6666C17.2319 20.6666 15.5362 19.9643 14.286 18.714C13.0357 17.4638 12.3333 15.7681 12.3333 14C12.3333 12.2319 13.0357 10.5362 14.286 9.28593C15.5362 8.03569 17.2319 7.33331 19 7.33331C20.7681 7.33331 22.4638 8.03569 23.714 9.28593C24.9643 10.5362 25.6667 12.2319 25.6667 14ZM22.3333 14C22.3333 14.884 21.9821 15.7319 21.357 16.357C20.7319 16.9821 19.8841 17.3333 19 17.3333C18.1159 17.3333 17.2681 16.9821 16.643 16.357C16.0179 15.7319 15.6667 14.884 15.6667 14C15.6667 13.1159 16.0179 12.2681 16.643 11.643C17.2681 11.0178 18.1159 10.6666 19 10.6666C19.8841 10.6666 20.7319 11.0178 21.357 11.643C21.9821 12.2681 22.3333 13.1159 22.3333 14Z" fill="#3F4041"/>
<path fill-rule="evenodd" clip-rule="evenodd" d="M19 0.666656C8.875 0.666656 0.666668 8.87499 0.666668 19C0.666668 29.125 8.875 37.3333 19 37.3333C29.125 37.3333 37.3333 29.125 37.3333 19C37.3333 8.87499 29.125 0.666656 19 0.666656ZM4 19C4 22.4833 5.18833 25.69 7.18 28.2367C8.57872 26.3998 10.3832 24.9112 12.4524 23.8872C14.5216 22.8631 16.7996 22.3313 19.1083 22.3333C21.3872 22.3312 23.6365 22.8492 25.6849 23.848C27.7332 24.8467 29.5266 26.2999 30.9283 28.0967C32.3724 26.2027 33.3447 23.992 33.7648 21.6476C34.1849 19.3033 34.0407 16.8925 33.3442 14.615C32.6476 12.3374 31.4187 10.2584 29.7591 8.55005C28.0996 6.8417 26.0571 5.55309 23.8006 4.79084C21.5442 4.02859 19.1387 3.81461 16.7831 4.16661C14.4275 4.51861 12.1897 5.42648 10.2546 6.81508C8.31958 8.20368 6.74302 10.0331 5.65538 12.152C4.56775 14.2709 4.0003 16.6183 4 19ZM19 34C15.5566 34.0052 12.2171 32.8206 9.54667 30.6467C10.6216 29.1079 12.0522 27.8515 13.717 26.9845C15.3817 26.1174 17.2313 25.6653 19.1083 25.6667C20.9619 25.6652 22.7891 26.1059 24.4382 26.9524C26.0873 27.7988 27.5106 29.0264 28.59 30.5333C25.8988 32.7778 22.5043 34.0049 19 34Z" fill="#3F4041"/>
</svg>
